# xmcd
#
# Track frame offsets:
#	150
#	32697
#	57755
#	90937
#	113435
#	130532
#	156127
#	178402
#	196090
#	213222
#
# Disc length: 3088 seconds
#
# Revision: 1
# Processed by: cddbd v1.5.1PL0 Copyright (c) Steve Scherf et al.
# Submitted via: EasyCDDAExtractor 7.0.3.1
#
DISCID=730c0e0a
DTITLE=The Bluesscatters - Mean Mistreater
DYEAR=1996
DGENRE=Blues
TTITLE0=King Bee
TTITLE1=Born In Chicago
TTITLE2=Red House
TTITLE3=Black Magic Woman
TTITLE4=Done Somebody Wrong
TTITLE5=Love In Vain
TTITLE6=Mean Mistreater
TTITLE7=Born Under A Bad Sign
TTITLE8=Spoonfull
TTITLE9=Love Love Love
EXTD=
EXTT0=
EXTT1=
EXTT2=
EXTT3=
EXTT4=
EXTT5=
EXTT6=
EXTT7=
EXTT8=
EXTT9=
PLAYORDER=
